<?xml version="1.0" standalone="no"?>
<!DOCTYPE svg PUBLIC "-//W3C//DTD SVG 20010904//EN"
 "http://www.w3.org/TR/2001/REC-SVG-20010904/DTD/svg10.dtd">
<svg version="1.0" xmlns="http://www.w3.org/2000/svg"
 width="600.000000pt" height="600.000000pt" viewBox="0 0 600.000000 600.000000"
 preserveAspectRatio="xMidYMid meet">

<g transform="translate(0.000000,600.000000) scale(0.100000,-0.100000)"
fill="#000000" stroke="none">
<path d="M1425 4679 c-343 -32 -574 -135 -715 -317 -105 -136 -144 -255 -144
-447 -1 -224 49 -351 198 -501 78 -78 105 -98 186 -138 52 -25 141 -58 198
-72 l102 -27 -72 -40 c-144 -79 -157 -98 -411 -608 -227 -456 -293 -576 -379
-692 -58 -79 -106 -112 -191 -133 -59 -15 -67 -20 -67 -40 l0 -24 368 0 367 0
16 38 c221 503 328 733 419 902 142 264 275 437 379 493 67 37 165 57 279 57
l94 0 -5 -522 c-5 -570 -8 -607 -64 -709 -33 -61 -105 -128 -170 -159 -26 -13
-92 -30 -145 -39 -91 -14 -98 -17 -98 -38 l0 -23 1430 0 1430 0 0 23 c0 21 -7
24 -97 38 -54 9 -120 26 -146 39 -65 31 -137 98 -170 159 -56 102 -59 139 -64
709 l-5 522 94 0 c114 0 212 -20 279 -57 104 -56 237 -229 379 -493 91 -169
198 -399 419 -902 l16 -38 368 0 367 0 0 24 c0 20 -8 25 -67 40 -163 40 -221
123 -570 825 -254 510 -267 529 -411 608 l-72 40 102 27 c57 14 146 47 198 72
81 40 108 60 186 138 149 150 199 277 198 501 0 192 -39 311 -144 447 -144
186 -369 284 -730 317 -139 13 -2998 13 -3135 0z m1673 -49 c196 -32 314 -144
355 -337 9 -44 12 -319 12 -1128 0 -1147 1 -1130 -51 -1246 -73 -161 -275
-252 -492 -221 -116 16 -183 45 -251 108 -64 59 -103 131 -124 231 -17 84 -17
2172 0 2256 54 252 267 383 551 337z m-1048 -730 l0 -720 -119 0 c-156 0 -310
16 -391 40 -172 52 -341 233 -406 435 -35 108 -44 285 -20 403 55 270 225 467
455 527 86 22 190 32 349 34 l132 1 0 -720z m2335 695 c260 -52 442 -248 501
-537 24 -118 15 -295 -20 -403 -65 -202 -234 -383 -406 -435 -81 -24 -235 -40
-391 -40 l-119 0 0 722 0 721 178 -6 c99 -3 212 -12 257 -22z"/>
</g>
</svg>
